<svg width="256" height="256" viewBox="0 0 256 256" fill="none" xmlns="http://www.w3.org/2000/svg">
    <style>
        path {
            fill: #0F0F0F;
        }
        @media (prefers-color-scheme: dark) {
            path {
                fill: white;
            }
        }
    </style>

    <path fill-rule="evenodd" clip-rule="evenodd"
        d="M144.043 255.004C207.163 247.112 256 193.259 256 128C256 57.3076 198.692 0 128 0C57.3076 0 0 57.3076 0 128C0 194.789 51.1528 249.63 116.418 255.483C116.266 255.313 116.148 255.108 116.075 254.877L68.3538 102.183C66.7791 97.2444 63.8948 88.7485 61.2796 82.1858C59.1755 77.0996 57.6352 73.8276 56.3229 71.6718C55.0251 69.5399 54.0273 68.63 53.0519 68.1201C52.9941 68.0899 52.9381 68.0559 52.8843 68.0184C50.684 66.485 48.5635 65.5053 45.4559 65.2554C44.6204 65.1882 43.9851 64.4428 44.0173 63.5675C44.0495 62.6923 44.7376 62 45.5755 62H75.6339H103.056C103.894 62 104.582 62.6923 104.614 63.5675C104.646 64.4428 104.011 65.1882 103.175 65.2554C100.33 65.4842 98.3232 66.5394 95.8935 67.8169C95.7099 67.9134 95.524 68.0112 95.3351 68.11C94.3787 68.644 93.7538 69.0638 93.3014 69.5429C92.8829 69.9861 92.5576 70.5399 92.3395 71.4387C91.8637 73.3986 91.9401 76.7417 92.7373 83.2695L92.7379 83.2737C93.5122 89.7504 95.588 98.4514 96.9029 103.403L138.482 235.922L156.641 163.325C161.116 139.102 165.576 110.002 166.625 85.333L166.625 85.3218C167.144 74.7428 164.504 69.8396 161.384 68.1004C161.376 68.096 161.368 68.0916 161.361 68.0871C159.004 66.7181 156.891 65.5041 153.569 65.2561C152.732 65.1935 152.092 64.4491 152.122 63.572C152.152 62.6949 152.841 62 153.68 62H211.425C212.264 62 212.953 62.6949 212.983 63.572C213.013 64.4491 212.373 65.1935 211.536 65.2561L211.425 63.6301V63.6413L211.536 65.2561C208.157 65.5083 206.039 66.4939 203.851 68.0184C203.798 68.0559 203.742 68.0899 203.685 68.1201L202.99 66.667L202.987 66.6624L203.685 68.1201C202.708 68.63 201.71 69.5399 200.413 71.6718C199.101 73.8276 197.561 77.0997 195.456 82.186C192.845 88.7407 189.964 97.2238 188.388 102.165L147.27 242.413L144.113 254.79C144.094 254.864 144.071 254.936 144.043 255.004Z"
        />
    <rect width="256" height="256" rx="128"/>
</svg>
